<?xml version="1.0" encoding="utf-8"?>
<!-- Generator: Adobe Illustrator 23.0.2, SVG Export Plug-In . SVG Version: 6.00 Build 0)  -->
<svg version="1.1" id="Layer_1" xmlns="http://www.w3.org/2000/svg" xmlns:xlink="http://www.w3.org/1999/xlink" x="0px" y="0px"
	 viewBox="0 0 303.3 76.7" style="enable-background:new 0 0 303.3 76.7;" xml:space="preserve">
<g>
	<path d="M46.6,21.4L27.4,57.8L8.2,21.4H46.6z"/>
	<path d="M72.6,57l8.3-37.5H89l-6.9,31.3h20.1l-1.4,6.3H72.6z"/>
	<path d="M108.7,42.3c0-2.2,0.4-4.6,1.1-7c0.9-3.3,2.3-6.2,4.2-8.6c1.9-2.4,4.3-4.3,7.1-5.7s6.1-2.1,9.8-2.1c4.9,0,8.9,1.4,11.9,4.3
		c3,2.9,4.5,6.7,4.5,11.5c0,4-1,7.8-2.9,11.5s-4.6,6.6-8,8.6s-7.2,3-11.4,3c-3.7,0-6.8-0.8-9.3-2.4c-2.5-1.6-4.3-3.6-5.3-5.9
		S108.7,44.7,108.7,42.3z M116.8,42.1c0,2.6,0.8,4.7,2.5,6.5c1.7,1.7,3.8,2.6,6.5,2.6c2.2,0,4.3-0.7,6.3-2.1s3.7-3.5,5-6.2
		c1.3-2.8,2-5.5,2-8.2c0-3-0.8-5.3-2.5-7c-1.7-1.7-3.8-2.5-6.4-2.5c-4,0-7.2,1.8-9.7,5.3C118,34.1,116.8,37.9,116.8,42.1z"/>
	<path d="M177.9,43.5l8.2,1.2c-1.6,4.2-4,7.4-7.2,9.7s-7,3.3-11.3,3.3c-4.8,0-8.6-1.4-11.4-4.1c-2.7-2.8-4.1-6.8-4.1-12
		c0-4.3,0.9-8.2,2.7-11.7c1.8-3.5,4.4-6.3,7.6-8.1c3.2-1.9,6.8-2.8,10.6-2.8c4.3,0,7.8,1.1,10.4,3.3s4.2,5.1,4.7,8.9l-7.8,0.7
		c-0.4-2.2-1.3-3.8-2.5-4.7c-1.2-1-2.9-1.5-4.9-1.5c-2.3,0-4.4,0.6-6.3,1.9c-2,1.3-3.5,3.3-4.7,6.1c-1.2,2.8-1.8,5.5-1.8,8.3
		c0,3,0.8,5.3,2.3,7c1.5,1.6,3.4,2.5,5.7,2.5c2.1,0,4-0.6,5.8-1.9S177,46,177.9,43.5z"/>
	<path d="M215.1,48.7h-15.7l-4.8,8.3h-8.4l22.4-37.5h9l6.4,37.5h-7.7L215.1,48.7z M214.1,42.4l-2.3-15.1l-9.6,15.1H214.1z"/>
	<path d="M229.3,57l8.3-37.5h8.1l-6.9,31.3H259l-1.4,6.3H229.3z"/>
	<path d="M264.1,44.8l7.8-0.4c0.1,2.3,0.5,3.9,1.3,4.7c1.2,1.3,3.4,2,6.6,2c2.7,0,4.6-0.5,5.8-1.4c1.2-0.9,1.8-2,1.8-3.3
		c0-1.1-0.5-2-1.5-2.8c-0.7-0.6-2.6-1.5-5.6-2.7c-3.1-1.3-5.3-2.3-6.7-3.2c-1.4-0.8-2.5-1.9-3.3-3.3c-0.8-1.3-1.2-2.9-1.2-4.7
		c0-3.2,1.2-5.8,3.6-7.9s5.9-3.1,10.5-3.1c4.6,0,8.2,1,10.8,3.1c2.5,2.1,3.9,4.8,4.2,8.2l-7.8,0.3c-0.2-1.8-0.9-3.2-2.1-4.1
		c-1.2-1-2.9-1.4-5.2-1.4c-2.3,0-3.9,0.4-4.8,1.1c-1,0.8-1.4,1.7-1.4,2.8c0,1.1,0.4,2,1.3,2.7c0.9,0.7,2.8,1.7,5.9,2.9
		c4.6,1.9,7.5,3.4,8.7,4.5c1.9,1.7,2.8,3.9,2.8,6.6c0,3.3-1.4,6.1-4.1,8.5c-2.8,2.3-6.6,3.5-11.5,3.5c-3.4,0-6.4-0.5-8.8-1.6
		c-2.5-1.1-4.3-2.6-5.3-4.5S264,47.3,264.1,44.8z"/>
</g>
</svg>
